<mxfile host="app.diagrams.net" modified="2024-06-18T10:10:14.753Z" agent="Mozilla/5.0 (Windows NT 10.0; Win64; x64) AppleWebKit/537.36 (KHTML, like Gecko) Chrome/125.0.0.0 Safari/537.36" etag="8wC1uKp8PiW447A6t_fs" version="24.5.5" type="github">
  <diagram name="Page-1" id="12e1b939-464a-85fe-373e-61e167be1490">
    <mxGraphModel dx="2074" dy="1106" grid="1" gridSize="10" guides="1" tooltips="1" connect="1" arrows="1" fold="1" page="1" pageScale="1.5" pageWidth="1169" pageHeight="826" background="#ffffff" math="0" shadow="0">
      <root>
        <mxCell id="0" />
        <mxCell id="1" parent="0" />
        <mxCell id="60da8b9f42644d3a-2" value="" style="whiteSpace=wrap;html=1;rounded=1;shadow=0;strokeWidth=8;fontSize=20;align=center;strokeColor=#FFFFFF;labelBackgroundColor=none;fillColor=#CCE5FF;" parent="1" vertex="1">
          <mxGeometry x="187" y="110" width="280" height="260" as="geometry" />
        </mxCell>
        <mxCell id="60da8b9f42644d3a-4" value="&lt;ul style=&quot;font-size: 20px&quot;&gt;&lt;li style=&quot;font-size: 20px&quot;&gt;Unit &amp;amp; Unit Integration&lt;/li&gt;&lt;li style=&quot;font-size: 20px&quot;&gt;Exploratory&amp;nbsp;&lt;/li&gt;&lt;li style=&quot;font-size: 20px&quot;&gt;Static Analysis&lt;/li&gt;&lt;li style=&quot;font-size: 20px&quot;&gt;Service Integration&lt;/li&gt;&lt;li style=&quot;font-size: 20px&quot;&gt;Contract&lt;/li&gt;&lt;li style=&quot;font-size: 20px&quot;&gt;Security&lt;/li&gt;&lt;/ul&gt;" style="text;html=1;align=left;verticalAlign=middle;whiteSpace=wrap;rounded=1;shadow=0;fontSize=20;strokeWidth=3;fillColor=#ffffff;strokeColor=#CCE5FF;perimeterSpacing=5;" parent="1" vertex="1">
          <mxGeometry x="192" y="440" width="270" height="170" as="geometry" />
        </mxCell>
        <mxCell id="60da8b9f42644d3a-6" value="" style="line;strokeWidth=2;html=1;rounded=0;shadow=0;fontSize=27;align=center;fillColor=none;strokeColor=#FFFFFF;" parent="1" vertex="1">
          <mxGeometry x="207" y="190" width="240" height="10" as="geometry" />
        </mxCell>
        <mxCell id="60da8b9f42644d3a-17" value="" style="whiteSpace=wrap;html=1;rounded=1;shadow=0;strokeWidth=8;fontSize=20;align=center;strokeColor=#FFFFFF;fillColor=#99CCFF;" parent="1" vertex="1">
          <mxGeometry x="467" y="110" width="280" height="260" as="geometry" />
        </mxCell>
        <mxCell id="60da8b9f42644d3a-20" value="" style="line;strokeWidth=2;html=1;rounded=0;shadow=0;fontSize=27;align=center;fillColor=none;strokeColor=#FFFFFF;" parent="1" vertex="1">
          <mxGeometry x="487" y="190" width="240" height="10" as="geometry" />
        </mxCell>
        <mxCell id="60da8b9f42644d3a-24" value="" style="whiteSpace=wrap;html=1;rounded=1;shadow=0;strokeWidth=8;fontSize=20;align=center;strokeColor=#FFFFFF;fillColor=#66B2FF;" parent="1" vertex="1">
          <mxGeometry x="747" y="110" width="280" height="260" as="geometry" />
        </mxCell>
        <mxCell id="60da8b9f42644d3a-27" value="" style="line;strokeWidth=2;html=1;rounded=0;shadow=0;fontSize=27;align=center;fillColor=none;strokeColor=#FFFFFF;" parent="1" vertex="1">
          <mxGeometry x="767" y="190" width="240" height="10" as="geometry" />
        </mxCell>
        <mxCell id="60da8b9f42644d3a-31" value="" style="whiteSpace=wrap;html=1;rounded=1;shadow=0;strokeWidth=8;fontSize=20;align=center;strokeColor=#FFFFFF;fillColor=#3399FF;" parent="1" vertex="1">
          <mxGeometry x="1027" y="110" width="280" height="260" as="geometry" />
        </mxCell>
        <mxCell id="60da8b9f42644d3a-34" value="" style="line;strokeWidth=2;html=1;rounded=0;shadow=0;fontSize=27;align=center;fillColor=none;strokeColor=#FFFFFF;" parent="1" vertex="1">
          <mxGeometry x="1047" y="190" width="240" height="10" as="geometry" />
        </mxCell>
        <mxCell id="60da8b9f42644d3a-37" value="" style="html=1;shadow=0;dashed=0;align=center;verticalAlign=middle;shape=mxgraph.arrows2.stylisedArrow;dy=0.6;dx=40;notch=15;feather=0.4;rounded=0;strokeWidth=1;fontSize=27;strokeColor=none;fillColor=#CCCCCC;" parent="1" vertex="1">
          <mxGeometry x="1117" y="246" width="100" height="60" as="geometry" />
        </mxCell>
        <mxCell id="awgjqPLiiekeFISjJ3Pd-5" value="" style="whiteSpace=wrap;html=1;rounded=1;shadow=0;strokeWidth=8;fontSize=20;align=center;strokeColor=#FFFFFF;fillColor=#004C99;fontColor=#0066CC;" parent="1" vertex="1">
          <mxGeometry x="1307" y="110" width="280" height="260" as="geometry" />
        </mxCell>
        <mxCell id="awgjqPLiiekeFISjJ3Pd-6" value="Production" style="text;html=1;strokeColor=none;fillColor=none;align=center;verticalAlign=middle;whiteSpace=wrap;rounded=0;shadow=0;fontSize=27;fontStyle=1" parent="1" vertex="1">
          <mxGeometry x="1302" y="130" width="280" height="60" as="geometry" />
        </mxCell>
        <mxCell id="awgjqPLiiekeFISjJ3Pd-8" value="" style="line;strokeWidth=2;html=1;rounded=0;shadow=0;fontSize=27;align=center;fillColor=none;strokeColor=#FFFFFF;" parent="1" vertex="1">
          <mxGeometry x="1327" y="190" width="240" height="10" as="geometry" />
        </mxCell>
        <mxCell id="awgjqPLiiekeFISjJ3Pd-10" value="Change Management Gate" style="ellipse;whiteSpace=wrap;html=1;rounded=0;shadow=0;strokeWidth=6;fontSize=16;align=center;strokeColor=#FFFFFF;fillColor=#CCFFCC;" parent="1" vertex="1">
          <mxGeometry x="1250" y="218" width="115" height="115" as="geometry" />
        </mxCell>
        <mxCell id="awgjqPLiiekeFISjJ3Pd-15" value="Path to Live (PTL)" style="text;html=1;align=center;verticalAlign=middle;resizable=0;points=[];autosize=1;fontSize=60;fontStyle=3;fillColor=#ffffff;rounded=0;fontColor=#4D4D4D;textOpacity=80;spacingTop=1;spacing=8;" parent="1" vertex="1">
          <mxGeometry x="617" y="15" width="540" height="90" as="geometry" />
        </mxCell>
        <mxCell id="awgjqPLiiekeFISjJ3Pd-66" value="Automated Tests and/or QA Gate" style="ellipse;whiteSpace=wrap;html=1;rounded=0;shadow=0;strokeWidth=6;fontSize=16;align=center;strokeColor=#FFFFFF;fillColor=#FFCCCC;" parent="1" vertex="1">
          <mxGeometry x="410" y="218" width="115" height="115" as="geometry" />
        </mxCell>
        <mxCell id="awgjqPLiiekeFISjJ3Pd-68" value="Automated Tests and/or QA Gate" style="ellipse;whiteSpace=wrap;html=1;rounded=0;shadow=0;strokeWidth=6;fontSize=16;align=center;strokeColor=#FFFFFF;fillColor=#FFE6CC;" parent="1" vertex="1">
          <mxGeometry x="690" y="218" width="115" height="115" as="geometry" />
        </mxCell>
        <mxCell id="awgjqPLiiekeFISjJ3Pd-70" value="QA Gate" style="ellipse;whiteSpace=wrap;html=1;rounded=0;shadow=0;strokeWidth=6;fontSize=16;align=center;strokeColor=#FFFFFF;fillColor=#CCE5FF;" parent="1" vertex="1">
          <mxGeometry x="970" y="218" width="115" height="115" as="geometry" />
        </mxCell>
        <mxCell id="awgjqPLiiekeFISjJ3Pd-71" value="Testing Actvities (guide only)" style="whiteSpace=wrap;html=1;rounded=1;shadow=0;strokeWidth=3;fontSize=20;align=center;labelBackgroundColor=none;fillColor=#FFFFFF;strokeColor=#CCCCCC;fontStyle=1" parent="1" vertex="1">
          <mxGeometry x="190" y="382" width="1390" height="40" as="geometry" />
        </mxCell>
        <mxCell id="awgjqPLiiekeFISjJ3Pd-91" value="&lt;ul style=&quot;font-size: 20px&quot;&gt;&lt;li style=&quot;font-size: 20px&quot;&gt;Integration&amp;nbsp;&lt;/li&gt;&lt;li style=&quot;font-size: 20px&quot;&gt;Exploratory&lt;/li&gt;&lt;li style=&quot;font-size: 20px&quot;&gt;Performance&lt;/li&gt;&lt;li style=&quot;font-size: 20px&quot;&gt;Contract&lt;/li&gt;&lt;/ul&gt;" style="text;html=1;align=left;verticalAlign=middle;whiteSpace=wrap;rounded=1;shadow=0;fontSize=20;strokeWidth=3;fillColor=#ffffff;perimeterSpacing=5;strokeColor=#99CCFF;" parent="1" vertex="1">
          <mxGeometry x="472" y="440" width="270" height="170" as="geometry" />
        </mxCell>
        <mxCell id="awgjqPLiiekeFISjJ3Pd-92" value="&lt;ul style=&quot;font-size: 20px&quot;&gt;&lt;li style=&quot;font-size: 20px&quot;&gt;Performance&lt;/li&gt;&lt;/ul&gt;" style="text;html=1;align=left;verticalAlign=middle;whiteSpace=wrap;rounded=1;shadow=0;fontSize=20;strokeWidth=3;fillColor=#ffffff;perimeterSpacing=5;strokeColor=#66B2FF;" parent="1" vertex="1">
          <mxGeometry x="752" y="440" width="270" height="170" as="geometry" />
        </mxCell>
        <mxCell id="awgjqPLiiekeFISjJ3Pd-93" value="&lt;ul style=&quot;font-size: 20px&quot;&gt;&lt;li&gt;Integration&amp;nbsp;&lt;/li&gt;&lt;li&gt;Exploratory&lt;/li&gt;&lt;li&gt;Performance&lt;/li&gt;&lt;li&gt;UAT&lt;/li&gt;&lt;li&gt;Reliability&lt;/li&gt;&lt;li&gt;Disaster Recovery&lt;/li&gt;&lt;/ul&gt;" style="text;html=1;align=left;verticalAlign=middle;whiteSpace=wrap;rounded=1;shadow=0;fontSize=20;strokeWidth=3;fillColor=#ffffff;perimeterSpacing=5;strokeColor=#3399FF;" parent="1" vertex="1">
          <mxGeometry x="1032" y="440" width="270" height="170" as="geometry" />
        </mxCell>
        <mxCell id="awgjqPLiiekeFISjJ3Pd-94" value="&lt;ul style=&quot;font-size: 20px&quot;&gt;&lt;li&gt;TiP -&amp;nbsp;&lt;font style=&quot;font-size: 17px&quot;&gt;Testing in Production&lt;/font&gt;&lt;/li&gt;&lt;li&gt;Availability&lt;/li&gt;&lt;li&gt;Security&amp;nbsp;&lt;/li&gt;&lt;li&gt;UAT&lt;/li&gt;&lt;li&gt;A/B&lt;/li&gt;&lt;li&gt;Failover &amp;amp; Disaster Recovery&lt;/li&gt;&lt;/ul&gt;" style="text;html=1;align=left;verticalAlign=middle;whiteSpace=wrap;rounded=1;shadow=0;fontSize=20;strokeWidth=3;fillColor=#ffffff;perimeterSpacing=5;strokeColor=#004C99;" parent="1" vertex="1">
          <mxGeometry x="1312" y="440" width="270" height="170" as="geometry" />
        </mxCell>
        <mxCell id="awgjqPLiiekeFISjJ3Pd-101" value="&lt;ul style=&quot;font-size: 20px&quot;&gt;&lt;li style=&quot;font-size: 20px&quot;&gt;feature/*&lt;/li&gt;&lt;/ul&gt;" style="text;html=1;align=left;verticalAlign=middle;whiteSpace=wrap;rounded=1;shadow=0;fontSize=20;strokeWidth=3;fillColor=#ffffff;strokeColor=#CCE5FF;perimeterSpacing=5;" parent="1" vertex="1">
          <mxGeometry x="183" y="688" width="270" height="52" as="geometry" />
        </mxCell>
        <mxCell id="awgjqPLiiekeFISjJ3Pd-102" value="Code Branch" style="whiteSpace=wrap;html=1;rounded=1;shadow=0;strokeWidth=3;fontSize=20;align=center;labelBackgroundColor=none;fillColor=#FFFFFF;strokeColor=#CCCCCC;fontStyle=1" parent="1" vertex="1">
          <mxGeometry x="181" y="629" width="1390" height="40" as="geometry" />
        </mxCell>
        <mxCell id="awgjqPLiiekeFISjJ3Pd-103" value="&lt;ul style=&quot;font-size: 20px&quot;&gt;&lt;li style=&quot;font-size: 20px&quot;&gt;feature/* or main&lt;/li&gt;&lt;/ul&gt;" style="text;html=1;align=left;verticalAlign=middle;whiteSpace=wrap;rounded=1;shadow=0;fontSize=20;strokeWidth=3;fillColor=#ffffff;perimeterSpacing=5;strokeColor=#99CCFF;" parent="1" vertex="1">
          <mxGeometry x="463" y="688" width="270" height="52" as="geometry" />
        </mxCell>
        <mxCell id="awgjqPLiiekeFISjJ3Pd-104" value="&lt;ul style=&quot;font-size: 20px&quot;&gt;&lt;li style=&quot;font-size: 20px&quot;&gt;main&lt;/li&gt;&lt;/ul&gt;" style="text;html=1;align=left;verticalAlign=middle;whiteSpace=wrap;rounded=1;shadow=0;fontSize=20;strokeWidth=3;fillColor=#ffffff;perimeterSpacing=5;strokeColor=#66B2FF;" parent="1" vertex="1">
          <mxGeometry x="743" y="688" width="270" height="52" as="geometry" />
        </mxCell>
        <mxCell id="awgjqPLiiekeFISjJ3Pd-105" value="&lt;ul style=&quot;font-size: 20px&quot;&gt;&lt;li&gt;main&lt;/li&gt;&lt;/ul&gt;" style="text;html=1;align=left;verticalAlign=middle;whiteSpace=wrap;rounded=1;shadow=0;fontSize=20;strokeWidth=3;fillColor=#ffffff;perimeterSpacing=5;strokeColor=#3399FF;" parent="1" vertex="1">
          <mxGeometry x="1023" y="688" width="270" height="52" as="geometry" />
        </mxCell>
        <mxCell id="awgjqPLiiekeFISjJ3Pd-106" value="&lt;ul style=&quot;font-size: 20px&quot;&gt;&lt;li&gt;main&lt;/li&gt;&lt;/ul&gt;" style="text;html=1;align=left;verticalAlign=middle;whiteSpace=wrap;rounded=1;shadow=0;fontSize=20;strokeWidth=3;fillColor=#ffffff;perimeterSpacing=5;strokeColor=#004C99;" parent="1" vertex="1">
          <mxGeometry x="1303" y="688" width="270" height="52" as="geometry" />
        </mxCell>
        <mxCell id="awgjqPLiiekeFISjJ3Pd-107" value="Devlopment" style="text;html=1;strokeColor=none;fillColor=none;align=center;verticalAlign=middle;whiteSpace=wrap;rounded=0;shadow=0;fontSize=27;fontStyle=1" parent="1" vertex="1">
          <mxGeometry x="187" y="130" width="280" height="60" as="geometry" />
        </mxCell>
        <mxCell id="awgjqPLiiekeFISjJ3Pd-108" value="Test" style="text;html=1;strokeColor=none;fillColor=none;align=center;verticalAlign=middle;whiteSpace=wrap;rounded=0;shadow=0;fontSize=27;fontStyle=1" parent="1" vertex="1">
          <mxGeometry x="459" y="130" width="280" height="60" as="geometry" />
        </mxCell>
        <mxCell id="awgjqPLiiekeFISjJ3Pd-109" value="User Acceptance Testing" style="text;html=1;strokeColor=none;fillColor=none;align=center;verticalAlign=middle;whiteSpace=wrap;rounded=0;shadow=0;fontSize=27;fontStyle=1" parent="1" vertex="1">
          <mxGeometry x="745" y="130" width="280" height="60" as="geometry" />
        </mxCell>
        <mxCell id="awgjqPLiiekeFISjJ3Pd-110" value="Staging" style="text;html=1;strokeColor=none;fillColor=none;align=center;verticalAlign=middle;whiteSpace=wrap;rounded=0;shadow=0;fontSize=27;fontStyle=1" parent="1" vertex="1">
          <mxGeometry x="1018" y="130" width="280" height="60" as="geometry" />
        </mxCell>
        <mxCell id="awgjqPLiiekeFISjJ3Pd-111" value="" style="html=1;shadow=0;dashed=0;align=center;verticalAlign=middle;shape=mxgraph.arrows2.stylisedArrow;dy=0.6;dx=40;notch=15;feather=0.4;rounded=0;strokeWidth=1;fontSize=27;strokeColor=none;fillColor=#CCCCCC;" parent="1" vertex="1">
          <mxGeometry x="548" y="246" width="100" height="60" as="geometry" />
        </mxCell>
        <mxCell id="awgjqPLiiekeFISjJ3Pd-112" value="" style="html=1;shadow=0;dashed=0;align=center;verticalAlign=middle;shape=mxgraph.arrows2.stylisedArrow;dy=0.6;dx=40;notch=15;feather=0.4;rounded=0;strokeWidth=1;fontSize=27;strokeColor=none;fillColor=#CCCCCC;" parent="1" vertex="1">
          <mxGeometry x="835" y="245.5" width="100" height="60" as="geometry" />
        </mxCell>
        <mxCell id="awgjqPLiiekeFISjJ3Pd-114" value="&lt;ul style=&quot;font-size: 20px&quot;&gt;&lt;li style=&quot;font-size: 20px&quot;&gt;dev01 -dev05&lt;/li&gt;&lt;/ul&gt;" style="text;html=1;align=left;verticalAlign=middle;whiteSpace=wrap;rounded=1;shadow=0;fontSize=20;strokeWidth=3;fillColor=#ffffff;strokeColor=#CCE5FF;perimeterSpacing=5;" parent="1" vertex="1">
          <mxGeometry x="184" y="819" width="270" height="52" as="geometry" />
        </mxCell>
        <mxCell id="awgjqPLiiekeFISjJ3Pd-115" value="Environments" style="whiteSpace=wrap;html=1;rounded=1;shadow=0;strokeWidth=3;fontSize=20;align=center;labelBackgroundColor=none;fillColor=#FFFFFF;strokeColor=#CCCCCC;fontStyle=1" parent="1" vertex="1">
          <mxGeometry x="182" y="760" width="1390" height="40" as="geometry" />
        </mxCell>
        <mxCell id="awgjqPLiiekeFISjJ3Pd-116" value="&lt;ul style=&quot;font-size: 20px&quot;&gt;&lt;li style=&quot;font-size: 20px&quot;&gt;tst&lt;/li&gt;&lt;/ul&gt;" style="text;html=1;align=left;verticalAlign=middle;whiteSpace=wrap;rounded=1;shadow=0;fontSize=20;strokeWidth=3;fillColor=#ffffff;perimeterSpacing=5;strokeColor=#99CCFF;" parent="1" vertex="1">
          <mxGeometry x="464" y="819" width="270" height="52" as="geometry" />
        </mxCell>
        <mxCell id="awgjqPLiiekeFISjJ3Pd-117" value="&lt;ul style=&quot;font-size: 20px&quot;&gt;&lt;li style=&quot;font-size: 20px&quot;&gt;uat&lt;/li&gt;&lt;/ul&gt;" style="text;html=1;align=left;verticalAlign=middle;whiteSpace=wrap;rounded=1;shadow=0;fontSize=20;strokeWidth=3;fillColor=#ffffff;perimeterSpacing=5;strokeColor=#66B2FF;" parent="1" vertex="1">
          <mxGeometry x="744" y="819" width="270" height="52" as="geometry" />
        </mxCell>
        <mxCell id="awgjqPLiiekeFISjJ3Pd-118" value="&lt;ul style=&quot;font-size: 20px&quot;&gt;&lt;li&gt;stg&lt;/li&gt;&lt;/ul&gt;" style="text;html=1;align=left;verticalAlign=middle;whiteSpace=wrap;rounded=1;shadow=0;fontSize=20;strokeWidth=3;fillColor=#ffffff;perimeterSpacing=5;strokeColor=#3399FF;" parent="1" vertex="1">
          <mxGeometry x="1024" y="819" width="270" height="52" as="geometry" />
        </mxCell>
        <mxCell id="awgjqPLiiekeFISjJ3Pd-119" value="&lt;ul style=&quot;font-size: 20px&quot;&gt;&lt;li&gt;prd&lt;/li&gt;&lt;/ul&gt;" style="text;html=1;align=left;verticalAlign=middle;whiteSpace=wrap;rounded=1;shadow=0;fontSize=20;strokeWidth=3;fillColor=#ffffff;perimeterSpacing=5;strokeColor=#004C99;" parent="1" vertex="1">
          <mxGeometry x="1304" y="819" width="270" height="52" as="geometry" />
        </mxCell>
        <mxCell id="awgjqPLiiekeFISjJ3Pd-120" value="&lt;ul style=&quot;font-size: 20px&quot;&gt;&lt;li style=&quot;font-size: 20px&quot;&gt;Environment URLs&lt;/li&gt;&lt;li style=&quot;font-size: 20px&quot;&gt;Test Result Dashboard&lt;/li&gt;&lt;li style=&quot;font-size: 20px&quot;&gt;CI/CD Pipelines&lt;/li&gt;&lt;li style=&quot;font-size: 20px&quot;&gt;Build or Release Pipeline&lt;/li&gt;&lt;/ul&gt;" style="text;html=1;align=left;verticalAlign=middle;whiteSpace=wrap;rounded=1;shadow=0;fontSize=20;strokeWidth=3;fillColor=#ffffff;strokeColor=#CCE5FF;perimeterSpacing=5;spacingTop=2;" parent="1" vertex="1">
          <mxGeometry x="182" y="948" width="270" height="122" as="geometry" />
        </mxCell>
        <mxCell id="awgjqPLiiekeFISjJ3Pd-121" value="Useful URLs" style="whiteSpace=wrap;html=1;rounded=1;shadow=0;strokeWidth=3;fontSize=20;align=center;labelBackgroundColor=none;fillColor=#FFFFFF;strokeColor=#CCCCCC;fontStyle=1" parent="1" vertex="1">
          <mxGeometry x="180" y="890" width="1390" height="40" as="geometry" />
        </mxCell>
        <mxCell id="awgjqPLiiekeFISjJ3Pd-122" value="&lt;ul style=&quot;font-size: 20px&quot;&gt;&lt;li&gt;Environment URLs&lt;/li&gt;&lt;li&gt;Test Result Dashboard&lt;/li&gt;&lt;li&gt;CI/CD Pipelines&lt;/li&gt;&lt;li&gt;Build or Release Pipeline&lt;/li&gt;&lt;/ul&gt;" style="text;html=1;align=left;verticalAlign=middle;whiteSpace=wrap;rounded=1;shadow=0;fontSize=20;strokeWidth=3;fillColor=#ffffff;perimeterSpacing=5;strokeColor=#99CCFF;" parent="1" vertex="1">
          <mxGeometry x="462" y="948" width="270" height="122" as="geometry" />
        </mxCell>
        <mxCell id="awgjqPLiiekeFISjJ3Pd-123" value="&lt;ul style=&quot;font-size: 20px&quot;&gt;&lt;li&gt;Environment URLs&lt;/li&gt;&lt;li&gt;Test Result Dashboard&lt;/li&gt;&lt;li&gt;CI/CD Pipelines&lt;/li&gt;&lt;li&gt;Build or Release Pipeline&lt;/li&gt;&lt;/ul&gt;" style="text;html=1;align=left;verticalAlign=middle;whiteSpace=wrap;rounded=1;shadow=0;fontSize=20;strokeWidth=3;fillColor=#ffffff;perimeterSpacing=5;strokeColor=#66B2FF;" parent="1" vertex="1">
          <mxGeometry x="742" y="948" width="270" height="122" as="geometry" />
        </mxCell>
        <mxCell id="awgjqPLiiekeFISjJ3Pd-124" value="&lt;ul style=&quot;font-size: 20px&quot;&gt;&lt;li&gt;Environment URLs&lt;/li&gt;&lt;li&gt;Test Result Dashboard&lt;/li&gt;&lt;li&gt;CI/CD Pipelines&lt;/li&gt;&lt;li&gt;Build or Release Pipeline&lt;/li&gt;&lt;/ul&gt;" style="text;html=1;align=left;verticalAlign=middle;whiteSpace=wrap;rounded=1;shadow=0;fontSize=20;strokeWidth=3;fillColor=#ffffff;perimeterSpacing=5;strokeColor=#3399FF;" parent="1" vertex="1">
          <mxGeometry x="1022" y="948" width="270" height="122" as="geometry" />
        </mxCell>
        <mxCell id="awgjqPLiiekeFISjJ3Pd-125" value="&lt;ul style=&quot;font-size: 20px&quot;&gt;&lt;li&gt;Environment URLs&lt;/li&gt;&lt;li&gt;Test Result Dashboard&lt;/li&gt;&lt;li&gt;CI/CD Pipelines&lt;/li&gt;&lt;li&gt;Build or Release Pipeline&lt;/li&gt;&lt;/ul&gt;" style="text;html=1;align=left;verticalAlign=middle;whiteSpace=wrap;rounded=1;shadow=0;fontSize=20;strokeWidth=3;fillColor=#ffffff;perimeterSpacing=5;strokeColor=#004C99;" parent="1" vertex="1">
          <mxGeometry x="1302" y="948" width="270" height="122" as="geometry" />
        </mxCell>
      </root>
    </mxGraphModel>
  </diagram>
</mxfile>
